<svg width="512" height="288" viewBox="0 0 512 288" fill="none" xmlns="http://www.w3.org/2000/svg">
<rect width="512" height="288" fill="white"/>
<path d="M184.94 94.56L108.98 133.52L169.54 121.4L189.66 160.64L212.76 148.8L184.94 94.56Z" fill="black"/>
<path d="M189.14 194.06L128.26 142.28L212.76 171.54L189.14 194.06Z" fill="#FFAD33"/>
<g clip-path="url(#clip0_7109_32151)">
<path fill-rule="evenodd" clip-rule="evenodd" d="M395.101 197.704C408.522 185.972 417 168.726 417 149.5C417 114.154 388.346 85.5 353 85.5C317.654 85.5 289 114.154 289 149.5C289 168.164 296.99 184.963 309.735 196.661L309.794 196.25L393.786 168.75L395.101 197.704Z" fill="#333333"/>
<path d="M336.479 93.1853L325.125 91.5L326.826 90.9767C327.85 90.6614 328.812 90.168 329.666 89.5191L329.932 89.3163C330.961 88.5344 331.78 87.5091 332.315 86.3326C332.604 85.6971 332.806 85.0257 332.916 84.3363L333.043 83.5424C333.18 82.6868 333.173 81.8143 333.022 80.961C332.958 80.5986 333.32 80.3081 333.66 80.4482L334.125 80.6395C334.707 80.8795 335.271 81.1636 335.811 81.4893L337.741 82.6551C340.307 84.2043 342.556 86.2256 344.37 88.6119L345.654 90.3013C346.132 90.9307 346.696 91.4906 347.328 91.965C348.022 92.4853 348.791 92.8968 349.609 93.1854L350.5 93.5L345.819 93.6872C342.696 93.8121 339.569 93.6441 336.479 93.1853Z" fill="#CCCCCC"/>
<path d="M333.58 103.252L336.947 97.0961C336.98 97.0358 336.982 96.9632 336.953 96.9011L335.805 94.484C335.084 92.9668 333.555 92 331.875 92L331.557 91.9891C329.359 91.9133 327.176 91.5957 325.047 91.0423L324.626 90.9328C322.88 90.4788 321.187 89.8433 319.573 89.0366L318.862 88.6808C317.79 88.1449 316.775 87.503 315.831 86.7646L314.888 86.0261C314.607 85.8066 314.201 85.8627 313.99 86.1498C313.341 87.0346 312.934 88.0734 312.81 89.1635L312.638 90.6643C312.546 91.4694 312.536 92.2817 312.608 93.0888L313.026 97.7899C313.337 101.288 314.544 104.646 316.531 107.541L316.956 108.161C317.567 109.051 318.278 109.867 319.077 110.592C319.189 110.695 319.332 110.758 319.484 110.771C325.257 111.289 330.798 108.337 333.58 103.252Z" fill="#CCCCCC"/>
<path d="M320.845 110.884L324.844 109.153C326.61 108.389 327.147 106.144 325.919 104.663C324.921 103.459 323.145 103.27 321.915 104.236L320.967 104.981C320.739 105.16 320.532 105.362 320.347 105.584L318.066 108.321C317.746 108.705 317.771 109.271 318.125 109.625L318.83 110.43C318.943 110.559 319.074 110.671 319.22 110.762C319.708 111.068 320.316 111.113 320.845 110.884Z" fill="#EDEDED"/>
<path d="M325.997 91.2109L325.875 91.25L326.241 91.3663C327.824 91.8699 329.465 92.165 331.125 92.244C331.208 92.248 331.291 92.2384 331.371 92.2155L332.125 92L332.5 91.875L330.105 91.3543C329.79 91.2858 329.495 91.1422 329.248 90.9356C329.054 90.7745 329.056 90.4771 329.25 90.3177L329.606 90.0271C330.03 89.6799 330.373 89.244 330.611 88.75C329.234 89.8411 327.671 90.6747 325.997 91.2109Z" fill="#B2B2B2"/>
<path d="M339.694 134.857L307.073 193.173C306.911 193.463 306.517 193.517 306.283 193.283L305.625 192.625L302.875 189.5L301.122 187.232C299.46 185.081 297.976 182.798 296.685 180.406L296.436 179.944C295.065 177.403 293.916 174.748 293.003 172.008L292.125 169.375C290.806 164.595 290.504 159.591 291.236 154.687L291.267 154.48C291.588 152.331 292.101 150.215 292.798 148.157L294.25 143.875L295.333 141.596C297.013 138.062 299.33 134.868 302.167 132.173L303.543 130.865C306.388 128.162 309.848 126.192 313.625 125.125C312.742 125.374 311.84 125.554 310.929 125.662L309.125 125.875L307.75 126L306.25 126.25L304.75 126.39L303.75 126.5L303.03 126.545C302.798 126.559 302.689 126.264 302.875 126.125L303.882 125.642C307.127 124.088 309.794 121.543 311.5 118.375L312.612 116.64C313.938 114.572 315.702 112.82 317.779 111.508L318.208 111.237C318.984 110.747 319.812 110.346 320.676 110.041L324.611 108.652C325.337 108.396 325.922 107.847 326.226 107.14L326.286 107C326.426 106.672 326.483 106.314 326.451 105.958C326.402 105.422 326.154 104.924 325.756 104.562L325.064 103.933C325.021 103.894 324.983 103.852 324.948 103.806L320.5 97.875L316.951 92.9829C316.249 92.0148 315.84 90.865 315.774 89.6708C315.763 89.4816 315.959 89.3504 316.13 89.4324L319.97 91.2757C323.293 92.8708 327.083 93.2062 330.634 92.2196C331.46 91.9903 332.303 91.831 333.156 91.7436L334.919 91.5628C339.352 91.1082 343.83 91.4763 348.129 92.6488L348.5 92.75L352.7 94.2618C357.967 96.1582 362.142 100.264 364.125 105.5L365.005 108.933C365.251 109.892 365.598 110.821 366.04 111.706C367.08 113.785 368.624 115.572 370.53 116.903L372.771 118.467C373.756 119.155 374.789 119.769 375.863 120.307L380.822 122.786C381.044 122.897 381.111 123.183 380.961 123.381C379.593 125.18 377.787 126.599 375.715 127.501L372.843 128.752C371.699 129.25 370.52 129.662 369.315 129.986L367.205 130.553C364.248 131.347 361.199 131.75 358.136 131.75H353.083C352.037 131.75 351 131.553 350.027 131.17C346.145 129.64 341.731 131.216 339.694 134.857Z" fill="white"/>
<path d="M356.796 113.829L358.997 113.855C359.295 113.858 359.363 113.437 359.078 113.347C358.61 113.199 358.156 113.012 357.72 112.788L356.002 111.903C354.837 111.303 353.742 110.577 352.736 109.738L352.398 109.457C351.635 108.821 350.942 108.105 350.332 107.321L349.942 106.818C349.808 106.647 349.533 106.751 349.548 106.968C349.803 110.797 352.96 113.785 356.796 113.829Z" fill="#666666"/>
<path d="M309.556 194.099L346.828 160.85C350.342 157.716 353.395 154.101 355.897 150.112L356.125 149.75C357.351 147.298 357.874 144.554 357.637 141.823L357.31 138.064C357.109 135.752 356.154 133.57 354.593 131.852C354.533 131.786 354.453 131.74 354.364 131.722L348.375 130.5C344.029 129.188 339.422 128.999 334.983 129.95L334.75 130L331.265 130.815C321.101 133.191 312.144 139.171 306.053 147.648L305.899 147.862C304.221 150.197 302.796 152.704 301.646 155.34L301.441 155.811C298.539 162.47 297.56 169.809 298.617 176.996L298.963 179.347C299.319 181.767 300.048 184.118 301.125 186.315C302.12 188.345 303.4 190.221 304.927 191.887L306.829 193.962C307.548 194.745 308.762 194.806 309.556 194.099Z" fill="#CCCCCC"/>
<path d="M342.187 149.715L342.067 149.783C338.921 151.581 337.23 154.973 337.395 158.592C337.442 159.621 338.473 160.564 339.465 160.283L341.291 159.766C343.652 159.097 345.838 157.92 347.697 156.319L353 151.75L354.573 150.586C363.718 143.817 375.208 141.028 386.438 142.851C386.785 142.908 386.796 143.402 386.452 143.474L385.125 143.75L384.523 143.961C383.287 144.393 382.214 145.194 381.448 146.256C381.304 146.455 381.495 146.723 381.73 146.65L382.166 146.516C384.617 145.762 387.188 145.476 389.744 145.673L390.75 145.75C396.211 145.988 401.278 148.657 404.563 153.025L405.795 154.663C409.444 159.516 410.988 165.633 410.08 171.636L409.605 174.772C408.959 179.041 407.404 183.122 405.046 186.738L404.875 187L402.25 190.5L399.375 193.75L396.741 196.279C394.336 198.587 391.707 200.649 388.892 202.435L388 203L386.294 203.813C385.854 204.022 385.488 203.42 385.875 203.125L388.25 200.875L388.738 200.362C390.058 198.977 391.007 197.28 391.496 195.43L391.722 194.577C391.824 194.194 391.875 193.794 391.875 193.397C391.875 191.227 390.338 189.325 388.209 188.908C386.888 188.649 385.521 188.991 384.477 189.839L382.125 191.75L377.974 195.147C375.249 197.376 372.296 199.311 369.165 200.921L364.875 203.125L357.625 205.875L356.103 206.29C353.455 207.012 350.753 207.515 348.023 207.794L346 208H339.5L330.875 207.063L326.208 206.053C323.746 205.52 321.364 204.671 319.121 203.526C317.295 202.595 315.573 201.474 313.983 200.181L310.375 197.25C306.001 193.91 303.261 188.862 302.844 183.375L302.625 180.5L302.882 176.456C303.283 170.152 305.698 164.144 309.77 159.316C311.416 157.364 313.309 155.634 315.402 154.169L316.169 153.632C319.365 151.395 322.93 149.74 326.701 148.744L329.237 148.074C332.534 147.203 335.988 147.111 339.327 147.805L341.972 148.355C342.635 148.493 342.776 149.378 342.187 149.715Z" fill="#5E5E5E"/>
</g>
<defs>
<clipPath id="clip0_7109_32151">
<rect width="128" height="128" fill="white" transform="translate(289 80)"/>
</clipPath>
</defs>
</svg>
