<svg width="512" height="512" viewBox="0 0 512 512" fill="none" xmlns="http://www.w3.org/2000/svg">
<rect width="512" height="512" fill="white"/>
<path d="M276.94 220.56L200.98 259.52L261.54 247.4L281.66 286.64L304.76 274.8L276.94 220.56Z" fill="black"/>
<path d="M281.14 320.06L220.26 268.28L304.76 297.54L281.14 320.06Z" fill="#FFAD33"/>
<g clip-path="url(#clip0_7110_28150)">
<path fill-rule="evenodd" clip-rule="evenodd" d="M135.101 451.704C148.522 439.972 157 422.726 157 403.5C157 368.154 128.346 339.5 93 339.5C57.6538 339.5 29 368.154 29 403.5C29 422.164 36.9896 438.963 49.7352 450.661L49.7942 450.25L133.786 422.75L135.101 451.704Z" fill="#333333"/>
<path d="M76.4787 347.185L65.125 345.5L66.8257 344.977C67.8505 344.661 68.812 344.168 69.6655 343.519L69.9325 343.316C70.9612 342.534 71.78 341.509 72.3148 340.333C72.6035 339.697 72.806 339.026 72.9162 338.336L73.0433 337.542C73.18 336.687 73.173 335.814 73.0225 334.961C72.9585 334.599 73.3197 334.308 73.66 334.448L74.1245 334.64C74.7073 334.88 75.271 335.164 75.8105 335.489L77.7412 336.655C80.3072 338.204 82.5565 340.226 84.37 342.612L85.654 344.301C86.1322 344.931 86.6958 345.491 87.3283 345.965C88.022 346.485 88.791 346.897 89.6087 347.185L90.5 347.5L85.8185 347.687C82.6963 347.812 79.5695 347.644 76.4787 347.185Z" fill="#CCCCCC"/>
<path d="M73.5802 357.251L76.9475 351.096C76.9805 351.036 76.9825 350.963 76.953 350.901L75.805 348.484C75.0843 346.967 73.5547 346 71.875 346L71.5575 345.989C69.3592 345.913 67.176 345.596 65.047 345.042L64.626 344.933C62.8803 344.479 61.1865 343.843 59.5733 343.037L58.8615 342.681C57.7898 342.145 56.7747 341.503 55.8312 340.765L54.8875 340.026C54.607 339.807 54.2008 339.863 53.9902 340.15C53.3413 341.035 52.9345 342.073 52.8099 343.163L52.6384 344.664C52.5464 345.469 52.5362 346.282 52.6079 347.089L53.0258 351.79C53.3367 355.287 54.5438 358.646 56.5308 361.541L56.9563 362.161C57.5668 363.051 58.2783 363.866 59.0765 364.592C59.189 364.694 59.3323 364.757 59.484 364.771C65.2573 365.289 70.7985 362.337 73.5802 357.251Z" fill="#CCCCCC"/>
<path d="M60.8445 364.884L64.844 363.153C66.6095 362.389 67.147 360.144 65.919 358.663C64.9208 357.459 63.145 357.27 61.9153 358.236L60.9668 358.981C60.7395 359.16 60.5318 359.362 60.3468 359.584L58.0658 362.321C57.7455 362.705 57.771 363.271 58.125 363.625L58.8295 364.43C58.9425 364.559 59.074 364.671 59.2195 364.762C59.7083 365.068 60.3158 365.113 60.8445 364.884Z" fill="#EDEDED"/>
<path d="M65.997 345.211L65.875 345.25L66.2405 345.366C67.8235 345.87 69.4653 346.165 71.1245 346.244C71.2075 346.248 71.2908 346.238 71.3708 346.215L72.125 346L72.5 345.875L70.1048 345.354C69.7895 345.286 69.4955 345.142 69.2477 344.936C69.0545 344.775 69.0557 344.477 69.2505 344.318L69.6058 344.027C70.03 343.68 70.3733 343.244 70.611 342.75C69.2335 343.841 67.6705 344.675 65.997 345.211Z" fill="#B2B2B2"/>
<path d="M79.694 388.857L47.0726 447.173C46.9108 447.463 46.5172 447.517 46.2827 447.283L45.625 446.625L42.875 443.5L41.1222 441.232C39.4602 439.081 37.9763 436.798 36.6854 434.406L36.4359 433.944C35.0645 431.403 33.9159 428.748 33.0028 426.008L32.125 423.375C30.8063 418.595 30.5036 413.591 31.2365 408.687L31.2674 408.48C31.5885 406.331 32.1009 404.215 32.7984 402.157L34.25 397.875L35.3334 395.596C37.0134 392.062 39.3298 388.868 42.1667 386.173L43.543 384.865C46.3882 382.162 49.8484 380.192 53.625 379.125C52.7418 379.374 51.8402 379.554 50.9287 379.662L49.125 379.875L47.75 380L46.25 380.25L44.75 380.39L43.75 380.5L43.0297 380.545C42.7982 380.559 42.6894 380.264 42.875 380.125L43.8818 379.642C47.1267 378.088 49.7942 375.543 51.5 372.375L52.6119 370.64C53.9378 368.572 55.7018 366.82 57.779 365.508L58.2083 365.237C58.9838 364.747 59.8115 364.346 60.6763 364.041L64.6115 362.652C65.337 362.396 65.9225 361.847 66.2258 361.14L66.2858 361C66.4263 360.672 66.483 360.314 66.4508 359.958C66.402 359.422 66.154 358.924 65.7558 358.562L65.064 357.933C65.0215 357.894 64.9825 357.852 64.948 357.806L60.5 351.875L56.9508 346.983C56.2485 346.015 55.8398 344.865 55.7735 343.671C55.7628 343.482 55.959 343.35 56.13 343.432L59.9703 345.276C63.2935 346.871 67.0825 347.206 70.6343 346.22C71.46 345.99 72.3035 345.831 73.156 345.744L74.9188 345.563C79.3515 345.108 83.83 345.476 88.129 346.649L88.5 346.75L92.6995 348.262C97.9673 350.158 102.142 354.264 104.125 359.5L105.006 362.933C105.251 363.892 105.598 364.821 106.04 365.706C107.08 367.785 108.624 369.572 110.53 370.903L112.771 372.467C113.756 373.155 114.789 373.769 115.863 374.307L120.822 376.786C121.045 376.897 121.111 377.183 120.961 377.381C119.593 379.18 117.787 380.599 115.715 381.501L112.843 382.752C111.699 383.25 110.52 383.662 109.315 383.986L107.205 384.553C104.248 385.347 101.199 385.75 98.1365 385.75H93.0833C92.037 385.75 91.0003 385.553 90.027 385.17C86.1453 383.64 81.7308 385.216 79.694 388.857Z" fill="white"/>
<path d="M96.7962 367.829L98.9967 367.854C99.2955 367.858 99.363 367.437 99.078 367.347C98.6103 367.199 98.1557 367.012 97.7197 366.787L96.002 365.902C94.8375 365.303 93.7422 364.577 92.736 363.738L92.398 363.457C91.635 362.821 90.9425 362.104 90.3325 361.32L89.942 360.818C89.8085 360.646 89.5335 360.751 89.548 360.968C89.803 364.796 92.9597 367.784 96.7962 367.829Z" fill="#666666"/>
<path d="M49.5558 448.099L86.8283 414.85C90.3418 411.716 93.395 408.101 95.8975 404.112L96.125 403.75C97.351 401.298 97.8742 398.554 97.6367 395.823L97.31 392.064C97.109 389.752 96.1545 387.57 94.5932 385.852C94.5327 385.786 94.4525 385.74 94.3643 385.722L88.375 384.5C84.0293 383.188 79.422 382.999 74.9832 383.95L74.75 384L71.265 384.815C61.1012 387.191 52.1436 393.171 46.0529 401.648L45.8993 401.862C44.2212 404.197 42.7956 406.704 41.6464 409.34L41.4412 409.811C38.5386 416.47 37.5602 423.809 38.6171 430.996L38.9628 433.347C39.3188 435.767 40.0483 438.118 41.1253 440.315C42.1199 442.345 43.4003 444.221 44.9274 445.887L46.8294 447.962C47.5478 448.745 48.7624 448.806 49.5558 448.099Z" fill="#CCCCCC"/>
<path d="M82.1872 403.714L82.0667 403.783C78.9215 405.58 77.2295 408.973 77.395 412.592C77.442 413.621 78.4733 414.564 79.4645 414.283L81.2907 413.765C83.6517 413.096 85.8383 411.92 87.6973 410.318L93 405.75L94.573 404.586C103.718 397.817 115.208 395.028 126.438 396.851C126.785 396.907 126.796 397.402 126.452 397.473L125.125 397.75L124.523 397.96C123.287 398.393 122.214 399.194 121.448 400.255C121.304 400.455 121.495 400.722 121.73 400.65L122.166 400.516C124.617 399.762 127.188 399.476 129.744 399.673L130.75 399.75C136.211 399.987 141.278 402.656 144.563 407.025L145.795 408.662C149.444 413.516 150.988 419.632 150.08 425.636L149.605 428.772C148.959 433.041 147.404 437.121 145.046 440.738L144.875 441L142.25 444.5L139.375 447.75L136.741 450.278C134.336 452.587 131.707 454.649 128.892 456.434L128 457L126.294 457.812C125.854 458.022 125.488 457.419 125.875 457.125L128.25 454.875L128.738 454.362C130.058 452.976 131.007 451.28 131.496 449.43L131.722 448.577C131.824 448.194 131.875 447.793 131.875 447.397C131.875 445.227 130.338 443.324 128.209 442.908C126.888 442.649 125.521 442.99 124.477 443.839L122.125 445.75L117.974 449.147C115.249 451.376 112.296 453.311 109.165 454.92L104.875 457.125L97.625 459.875L96.103 460.29C93.4555 461.012 90.753 461.515 88.023 461.793L86 462H79.5L70.875 461.062L66.208 460.052C63.7463 459.52 61.364 458.67 59.1205 457.526C57.2953 456.594 55.5732 455.473 53.9827 454.181L50.375 451.25C46.0012 447.91 43.2612 442.862 42.8437 437.374L42.625 434.5L42.8824 430.455C43.2835 424.152 45.6978 418.144 49.7698 413.316C51.4163 411.363 53.3094 409.633 55.4015 408.169L56.1693 407.631C59.3645 405.395 62.93 403.74 66.7012 402.744L69.2368 402.074C72.5338 401.203 75.988 401.111 79.3268 401.805L81.9717 402.354C82.6355 402.492 82.7757 403.378 82.1872 403.714Z" fill="#5E5E5E"/>
</g>
<g clip-path="url(#clip1_7110_28150)">
<path d="M220.367 62.6531L229.51 74.4082C229.51 74.4082 241.265 50.898 258.245 30C280.449 56.1224 305.265 92.6939 305.265 113.592C305.265 139.714 280.449 158 256.939 158C228.204 158 206 135.796 206 109.673C206 101.837 209.918 78.3265 220.367 62.6531Z" fill="url(#paint0_linear_7110_28150)"/>
<path d="M256.939 57.4286C318.327 124.041 275.224 143.633 256.939 143.633C242.571 143.633 190.327 129.265 256.939 57.4286Z" fill="#FF9955"/>
</g>
<path d="M419 334L355 366L376.333 376.667L419 355.333L440.333 366L397.667 387.333L419 398L483 366L419 334Z" fill="#FFD230"/>
<path d="M483 430V366L419 398V419.333L461.667 398V419.333L419 440.667V462L483 430Z" fill="#FFB900"/>
<path d="M376.333 376.667L355 366V430L376.333 440.667V419.333L397.667 430V451.333L419 462V398L397.667 387.333V408.667L376.333 398V376.667Z" fill="#FFD230"/>
<defs>
<linearGradient id="paint0_linear_7110_28150" x1="206" y1="30" x2="206" y2="12830" gradientUnits="userSpaceOnUse">
<stop stop-color="#FF8844"/>
<stop offset="1" stop-color="#FF3300"/>
</linearGradient>
<clipPath id="clip0_7110_28150">
<rect width="128" height="128" fill="white" transform="translate(29 334)"/>
</clipPath>
<clipPath id="clip1_7110_28150">
<rect width="99.2653" height="128" fill="white" transform="translate(206 30)"/>
</clipPath>
</defs>
</svg>
