<svg width="512" height="288" viewBox="0 0 512 288" fill="none" xmlns="http://www.w3.org/2000/svg">
<rect width="512" height="288" fill="white"/>
<path d="M184.94 94.56L108.98 133.52L169.54 121.4L189.66 160.64L212.76 148.8L184.94 94.56Z" fill="black"/>
<path d="M189.14 194.06L128.26 142.28L212.76 171.54L189.14 194.06Z" fill="#FFAD33"/>
<path d="M348 78L284 110L305.333 120.667L348 99.3333L369.333 110L326.667 131.333L348 142L412 110L348 78Z" fill="#FFD230"/>
<path d="M412 174V110L348 142V163.333L390.667 142V163.333L348 184.667V206L412 174Z" fill="#FFB900"/>
<path d="M305.333 120.667L284 110V174L305.333 184.667V163.333L326.667 174V195.333L348 206V142L326.667 131.333V152.667L305.333 142V120.667Z" fill="#FFD230"/>
</svg>
